<?xml version="1.0" standalone="no"?>
<!DOCTYPE svg PUBLIC "-//W3C//DTD SVG 20010904//EN"
 "http://www.w3.org/TR/2001/REC-SVG-20010904/DTD/svg10.dtd">
<svg version="1.0" xmlns="http://www.w3.org/2000/svg"
 width="1024.000000pt" height="1024.000000pt" viewBox="0 0 1024.000000 1024.000000"
 preserveAspectRatio="xMidYMid meet">

<g transform="translate(0.000000,1024.000000) scale(0.100000,-0.100000)"
fill="#000000" stroke="none">
<path d="M0 5120 l0 -5120 5120 0 5120 0 0 5120 0 5120 -5120 0 -5120 0 0
-5120z m5175 3217 c32 -18 40 -27 40 -51 0 -37 21 -45 29 -12 5 22 10 24 29
17 12 -5 189 -89 392 -186 511 -245 1113 -533 1407 -673 l247 -117 1 -871 0
-870 -32 -15 c-25 -12 -60 -14 -150 -11 l-118 4 0 517 0 517 30 11 c28 11 30
10 25 -8 -8 -24 0 -24 26 0 20 19 20 19 -5 25 -14 3 -37 4 -51 0 l-25 -6 -2
263 -3 262 -85 43 c-47 24 -105 52 -130 63 -25 11 -92 42 -149 69 l-103 50
-126 -76 c-69 -42 -127 -82 -129 -88 -2 -6 55 -39 126 -73 l130 -62 113 61
c62 34 122 68 133 76 22 16 69 19 61 5 -4 -5 -60 -42 -126 -83 -66 -40 -120
-79 -120 -85 0 -7 17 -21 38 -32 20 -11 51 -31 67 -46 27 -23 23 -22 -50 11
-44 20 -87 38 -95 41 -8 2 -55 -19 -104 -47 -103 -59 -215 -116 -203 -104 4 5
56 43 114 84 59 41 108 80 111 87 2 7 -48 38 -122 75 l-126 63 -79 -43 c-93
-50 -121 -55 -61 -9 23 17 55 42 69 53 l25 22 -128 61 c-71 33 -134 61 -140
61 -6 0 -28 -11 -48 -25 -20 -13 -59 -33 -88 -44 -43 -16 -49 -17 -38 -4 7 9
36 31 65 50 28 18 55 37 58 43 6 10 -327 180 -354 180 -8 0 -51 -20 -97 -45
-45 -25 -86 -45 -91 -45 -4 1 23 29 60 63 l69 63 -139 67 c-76 37 -144 67
-151 67 -7 0 -48 -20 -92 -45 -128 -73 -124 -60 19 53 l24 19 -98 51 -98 52
-122 -59 c-136 -66 -205 -106 -205 -121 0 -5 31 -25 69 -45 60 -30 95 -55 77
-55 -17 0 -143 53 -157 66 -22 20 -57 14 -134 -21 -103 -46 -205 -100 -205
-106 0 -4 35 -28 78 -53 92 -55 82 -58 -35 -11 -48 19 -92 35 -98 35 -7 0 -83
-34 -171 -76 -87 -43 -171 -77 -186 -77 -18 0 -24 -5 -21 -14 3 -7 -2 -13 -11
-13 -9 0 -28 -7 -41 -16 -23 -15 -25 -15 -25 0 0 9 -5 16 -11 16 -6 0 -9 -8
-6 -19 3 -15 -9 -26 -61 -54 -37 -19 -68 -39 -69 -44 -2 -5 27 -25 64 -46 86
-47 66 -47 -49 -1 -81 33 -90 35 -106 21 -9 -9 -64 -36 -122 -62 -58 -25 -113
-50 -122 -56 -26 -14 -38 -11 -38 9 1 12 37 34 125 76 69 33 125 63 125 67 0
4 -21 19 -47 34 l-48 27 -82 -41 -83 -41 0 -305 c0 -285 -1 -304 -17 -299 -17
5 -17 5 0 -6 16 -10 17 -45 17 -490 l0 -480 -150 0 -150 0 1 884 1 884 231
110 c535 254 1470 697 1572 745 61 28 173 82 250 119 77 37 147 68 155 67 8 0
33 -10 55 -22z m1208 -1623 l77 -7 0 -138 c0 -75 -3 -144 -6 -153 -5 -14 -32
-16 -195 -16 l-189 0 0 153 c0 85 3 157 7 160 8 9 207 9 306 1z m-1893 -159
c44 -23 63 -69 115 -290 27 -110 56 -211 66 -225 10 -14 21 -46 25 -72 l6 -48
-53 0 c-106 0 -208 -85 -217 -181 l-5 -49 -256 2 -256 3 -3 213 c-2 198 -4
214 -21 219 -17 4 -18 20 -20 224 l-2 219 296 0 c245 0 301 -3 325 -15z m1385
-370 l0 -190 -245 0 -245 0 -3 193 -2 192 247 -2 248 -3 0 -190z m460 137 c0
-33 4 -52 12 -52 6 0 18 -3 27 -6 12 -5 16 5 18 53 3 54 5 58 28 58 l25 0 0
-190 0 -190 -262 -3 -263 -2 0 195 0 195 208 -2 207 -3 0 -53z m313 -97 c-3
-13 -1 -22 3 -19 13 8 11 -10 -3 -25 -10 -11 -10 -13 0 -7 6 4 12 2 12 -4 0
-7 13 -10 32 -8 l32 3 -1 -85 0 -85 -29 -2 -29 -2 26 10 c20 8 25 15 22 34 -6
29 -30 40 -52 23 -14 -12 -14 -11 -2 5 7 9 21 17 30 18 12 0 11 2 -4 8 -21 9
-57 -7 -49 -21 3 -5 -9 -11 -26 -14 -17 -4 -33 -10 -36 -15 -2 -4 -11 -6 -18
-3 -7 3 -16 -2 -19 -10 -10 -25 -45 -20 -50 7 -4 19 -4 18 -6 -5 l-1 -28 80 0
c66 0 80 3 80 16 0 8 5 12 10 9 6 -3 10 -13 10 -21 0 -11 -19 -14 -95 -14
l-95 0 0 90 c0 83 1 90 20 90 19 0 25 17 23 68 -1 8 20 12 69 12 69 0 70 0 66
-25z m-2788 -277 l0 -173 -29 51 c-46 79 -71 88 -281 95 -96 3 -176 7 -177 8
-2 0 -3 19 -3 42 l0 41 198 -7 c170 -5 201 -4 211 9 7 8 10 24 6 34 -5 18 -20
20 -210 27 -191 7 -205 9 -205 26 0 18 12 19 245 19 l245 0 0 -172z m1890
-184 l0 -194 -247 2 -248 3 -3 193 -2 193 250 -2 250 -1 0 -194z m558 -2 l2
-192 -257 2 -258 3 -3 180 c-1 98 0 185 3 192 3 11 57 13 257 11 l253 -3 3
-193z m477 188 c-9 -14 8 -13 23 2 9 9 15 9 25 0 14 -15 22 -232 12 -329 l-7
-63 -228 0 c-126 0 -235 3 -244 6 -14 5 -16 31 -16 184 0 98 3 185 6 194 5 14
34 16 221 16 140 0 212 -3 208 -10z m-3115 -90 c62 -44 80 -147 37 -211 -54
-80 -142 -102 -222 -54 -73 42 -94 120 -54 202 43 89 159 120 239 63z m1038 0
c44 -27 72 -76 72 -128 0 -119 -89 -189 -199 -156 -139 41 -160 209 -36 285
41 26 120 25 163 -1z m-923 -228 c6 -4 11 -19 12 -34 1 -25 -3 -28 -28 -28
-27 0 -29 2 -23 28 11 44 18 50 39 34z m681 -13 c3 -6 2 -14 -2 -19 -10 -8
-492 -25 -484 -16 5 4 44 11 93 15 4 1 7 8 7 16 0 13 28 15 189 15 126 0 192
-4 197 -11z m2449 -88 c35 -5 -21 -10 -190 -15 -132 -4 -260 -11 -285 -15 -39
-6 -29 -8 70 -15 63 -5 216 -12 340 -17 269 -10 246 -9 345 -9 59 1 112 -7
200 -30 66 -17 124 -35 130 -39 5 -5 29 -11 52 -15 43 -6 302 -74 383 -100 41
-13 20 -14 -256 -15 -221 -1 -303 2 -312 11 -9 9 -12 9 -12 0 0 -18 -334 -12
-336 6 -3 25 -6 26 -14 5 l-9 -22 -1136 -1 c-908 0 -1135 2 -1136 12 0 10 -2
10 -5 1 -4 -9 -171 -12 -706 -13 -659 0 -701 1 -714 17 -13 17 -13 17 -14 0 0
-16 -27 -17 -459 -17 -421 1 -460 2 -466 18 -5 14 -8 14 -15 2 -5 -9 -31 -15
-72 -17 -60 -3 -57 -1 92 43 85 24 245 70 355 101 l200 56 365 7 c601 13 894
22 915 31 18 7 -330 13 -490 9 -32 -1 -118 2 -190 7 l-130 8 210 5 c116 3 547
7 959 8 412 1 751 4 752 5 7 6 1534 -5 1579 -12z m-3527 -8 c-10 -2 -26 -2
-35 0 -10 3 -2 5 17 5 19 0 27 -2 18 -5z m1917 -534 c-4 -5 -2 -9 4 -9 5 0 11
6 14 13 3 9 49 12 188 12 l184 -1 3 -247 c2 -180 -1 -247 -9 -247 -8 0 -8 -4
0 -13 7 -9 10 -74 10 -185 -1 -162 -7 -202 -24 -149 -6 19 -8 20 -12 4 -7 -26
5 -50 22 -43 12 4 14 -14 14 -124 0 -140 13 -193 50 -205 12 -4 45 -8 74 -9
l52 -3 0 -219 0 -219 -150 -3 c-270 -6 -346 17 -411 126 -69 114 -69 115 -70
835 -1 356 2 650 6 652 5 3 6 14 3 24 -4 14 1 20 19 23 28 5 40 0 33 -13z
m883 -1 c9 -9 12 -9 12 0 0 9 37 12 135 12 l135 0 0 -310 0 -310 -25 -6 c-14
-3 -25 -10 -25 -15 0 -5 -7 -9 -16 -9 -8 0 -12 -5 -9 -10 4 -6 11 -8 16 -5 5
4 9 1 9 -5 0 -8 9 -10 25 -6 l25 6 0 -210 c0 -180 -2 -210 -15 -210 -8 0 -15
-3 -15 -6 0 -3 7 -12 15 -20 8 -9 15 -26 15 -39 0 -35 44 -65 96 -65 35 0 44
-4 44 -17 1 -17 1 -17 11 0 5 9 14 17 19 17 5 0 9 -96 10 -214 0 -187 -2 -214
-16 -220 -31 -12 -368 -6 -420 7 -66 17 -115 55 -147 115 -57 105 -57 106 -57
849 l0 683 83 0 c51 0 88 -5 95 -12z m-3731 -178 c3 -11 10 -20 15 -20 6 0 8
9 5 20 -5 19 0 20 134 20 104 0 139 -3 139 -12 0 -9 4 -8 10 2 6 10 10 -78 10
-257 l0 -273 200 0 200 0 0 270 0 270 233 -2 232 -3 0 -740 0 -740 -232 -2
-233 -2 0 270 0 269 -200 0 -200 0 0 -264 0 -263 -121 -6 c-67 -3 -173 -3
-235 0 l-114 6 -1 86 c0 47 -2 380 -3 739 l-3 652 79 0 c71 0 80 -2 85 -20z
m5147 -265 c38 -8 87 -23 110 -33 22 -10 57 -26 76 -34 60 -27 157 -104 199
-160 98 -131 136 -258 128 -430 -6 -137 -29 -209 -99 -313 -63 -96 -127 -152
-230 -204 -115 -57 -218 -82 -348 -83 -135 -1 -229 21 -350 80 -260 126 -385
388 -325 677 16 75 73 199 110 239 13 14 21 27 19 29 -11 10 132 128 195 161
64 34 163 69 221 79 59 10 230 6 294 -8z m-3009 -21 c9 -12 14 -14 15 -6 0 19
25 11 140 -41 95 -43 250 -198 250 -251 0 -7 6 -19 14 -25 13 -11 26 -58 31
-111 1 -14 5 -34 8 -45 4 -11 3 -25 -1 -31 -10 -16 -123 -56 -139 -50 -8 3
-24 -1 -37 -9 -34 -23 -226 -86 -250 -83 -12 2 -29 -5 -38 -14 -10 -10 -24
-15 -33 -12 -8 4 -21 2 -28 -4 -6 -6 -48 -22 -92 -37 -44 -14 -90 -35 -103
-45 l-22 -19 22 -24 c51 -54 144 -82 223 -65 27 5 54 14 59 19 6 5 17 9 25 9
8 0 30 14 47 31 l32 31 40 -28 c36 -27 236 -186 255 -204 10 -9 -186 -143
-212 -145 -9 0 -32 -9 -51 -19 -68 -35 -127 -47 -255 -53 -104 -4 -143 -2
-195 12 -151 39 -226 75 -215 104 5 12 4 13 -6 4 -9 -9 -21 -7 -50 10 -22 12
-39 27 -39 34 0 6 -9 15 -20 18 -53 17 -146 176 -175 298 -30 128 -12 307 44
417 65 131 151 217 284 284 114 58 199 76 339 73 103 -3 120 -6 133 -23z
m-990 -1376 c-9 18 36 15 63 -4 24 -16 58 -12 47 6 -4 6 27 10 87 10 187 1
274 1 319 1 l46 -1 2 -122 c1 -67 3 -124 5 -125 1 -2 61 -4 133 -4 l129 -1 2
-113 c2 -93 0 -114 -13 -119 -8 -3 -15 -13 -15 -22 0 -13 3 -14 15 -4 13 10
15 9 15 -8 0 -14 -5 -20 -14 -16 -9 4 -13 -2 -11 -20 l3 -26 -118 0 c-72 0
-121 -4 -125 -10 -4 -6 -6 -74 -6 -150 1 -100 -2 -140 -10 -140 -8 0 -8 -4 0
-13 17 -21 14 -255 -5 -281 -18 -26 -18 -37 -1 -30 10 4 14 -8 16 -47 l1 -51
-137 4 c-91 4 -138 9 -141 17 -3 8 -12 6 -32 -5 -56 -34 -59 -25 -59 186 0
141 3 189 11 184 8 -5 9 -1 3 12 -12 30 -17 244 -5 244 10 0 8 50 -4 69 -4 6
-34 11 -72 11 -61 0 -64 1 -54 19 13 26 13 31 -5 31 -8 0 -14 -6 -13 -12 2 -7
-3 -12 -9 -10 -7 1 -13 -5 -13 -13 0 -18 -46 -21 -53 -2 -4 9 -8 8 -17 -3 -8
-11 -10 47 -8 225 3 232 4 240 23 241 46 2 53 5 51 22 -1 12 6 17 21 16 16 0
20 3 13 11 -10 12 -60 9 -60 -4 0 -3 -11 -6 -25 -6 -22 0 -25 4 -25 35 0 26 3
31 10 20 8 -13 10 -12 10 4 0 20 0 20 16 0 8 -10 13 -13 9 -6z m3458 8 c4 -7
10 -8 15 -1 4 6 44 11 90 12 82 2 82 2 82 -23 0 -14 -4 -22 -10 -19 -5 3 -10
1 -10 -4 0 -6 5 -11 10 -11 13 0 13 -127 0 -135 -8 -5 -8 -11 -1 -19 7 -8 12
-103 13 -240 4 -269 -13 -267 158 -27 66 93 120 159 127 156 8 -3 12 4 10 18
-1 13 3 21 11 19 6 -1 12 5 12 13 0 13 29 15 205 14 l205 -1 -67 -97 c-37 -53
-113 -161 -170 -240 l-102 -145 19 -25 c11 -17 17 -38 14 -56 -3 -23 -2 -25 4
-11 5 11 11 15 14 10 3 -5 16 -27 28 -49 12 -22 31 -55 42 -72 11 -18 15 -33
9 -33 -6 0 -11 -4 -11 -10 0 -5 6 -10 13 -10 10 0 87 -110 87 -124 0 -2 25
-44 55 -93 l54 -88 -100 -3 c-66 -2 -106 1 -115 9 -10 8 -14 8 -14 0 0 -7 -30
-11 -88 -11 -102 0 -99 -2 -157 105 -21 39 -57 102 -79 140 -23 39 -48 84 -56
100 -9 17 -20 30 -25 30 -6 0 -27 -25 -47 -55 l-37 -55 -1 -132 0 -133 -184 0
-184 0 0 648 c1 356 3 651 6 655 6 12 166 5 175 -7z m-3363 -6 c0 -5 -4 -10
-9 -10 -6 0 -13 5 -16 10 -3 6 1 10 9 10 9 0 16 -4 16 -10z m-550 -232 c57
-13 231 -98 237 -115 8 -20 -72 -128 -92 -126 -11 0 -14 -4 -11 -14 8 -19 -33
-86 -48 -79 -6 2 -57 25 -114 50 -56 25 -115 46 -130 46 -75 0 -100 -78 -39
-123 37 -28 81 -48 155 -72 28 -9 50 -20 47 -25 -3 -4 5 -6 17 -2 16 4 19 2
13 -8 -5 -9 -4 -11 3 -6 34 21 190 -105 223 -179 20 -43 26 -145 9 -145 -7 0
-7 -6 -1 -17 12 -23 -25 -107 -65 -147 -86 -87 -207 -130 -364 -130 -106 0
-260 26 -260 45 0 5 5 9 11 9 5 0 7 5 3 11 -4 8 -9 8 -17 0 -17 -17 -29 -14
-103 30 -113 68 -110 60 -51 139 29 39 58 67 65 65 7 -3 10 -1 7 4 -3 6 1 13
9 18 7 4 15 17 17 27 9 42 31 39 126 -17 114 -67 169 -85 209 -66 33 16 54 52
47 80 -8 29 -40 47 -174 95 -193 70 -259 115 -304 210 -37 79 -22 206 35 289
94 137 327 203 540 153z m2115 -2 c84 -20 181 -66 242 -115 193 -152 246 -438
127 -679 -123 -250 -462 -361 -764 -251 -163 59 -291 215 -326 395 -18 94 -17
131 1 219 31 147 117 270 248 356 54 35 147 72 207 82 59 10 210 6 265 -7z
m1212 -2 c70 -16 157 -56 230 -106 l43 -29 -20 -22 c-11 -12 -18 -27 -16 -34
3 -6 -16 -35 -42 -64 -25 -28 -48 -46 -50 -40 -2 6 -11 11 -20 11 -12 0 -13
-3 -4 -12 18 -18 14 -29 -18 -67 l-29 -34 -38 30 c-54 42 -95 56 -159 54 -187
-4 -297 -212 -188 -355 21 -28 54 -54 89 -72 73 -35 144 -31 234 16 l63 33 61
-69 c34 -38 81 -86 104 -107 24 -23 39 -45 36 -53 -9 -24 -105 -88 -129 -86
-16 1 -22 -3 -18 -12 7 -18 -78 -50 -172 -67 -161 -28 -348 24 -463 127 -28
25 -48 51 -44 56 3 6 1 8 -5 5 -13 -9 -72 73 -99 138 -66 158 -53 366 31 510
75 127 216 224 371 255 67 13 180 11 252 -6z"/>
<path d="M5320 8159 c0 -5 5 -7 10 -4 6 3 10 8 10 11 0 2 -4 4 -10 4 -5 0 -10
-5 -10 -11z"/>
<path d="M5010 8150 c0 -5 7 -10 15 -10 8 0 15 5 15 10 0 6 -7 10 -15 10 -8 0
-15 -4 -15 -10z"/>
<path d="M4799 8138 c-2 -23 2 -43 12 -53 6 -6 8 5 7 28 -3 34 -17 52 -19 25z"/>
<path d="M4950 7961 c-80 -38 -144 -72 -143 -77 1 -4 27 -18 58 -30 l56 -23
50 36 c27 19 52 33 55 31 2 -3 -11 -16 -31 -29 -30 -21 -51 -47 -43 -54 2 -2
48 -23 102 -48 l100 -44 123 78 c68 44 128 79 133 79 31 0 -3 -34 -95 -94 -58
-38 -108 -72 -110 -77 -3 -4 61 -39 141 -78 l147 -71 121 81 c66 45 123 83
125 85 2 2 -56 33 -130 68 -74 36 -150 74 -169 85 -69 39 -311 151 -328 151
-9 0 -82 -32 -162 -69z"/>
<path d="M4595 7910 c-3 -5 1 -10 10 -10 9 0 13 5 10 10 -3 6 -8 10 -10 10 -2
0 -7 -4 -10 -10z"/>
<path d="M4585 7789 c-99 -49 -322 -156 -495 -237 -499 -235 -689 -327 -690
-333 0 -6 60 -34 98 -44 13 -4 38 -1 55 6 48 19 272 141 275 151 2 4 11 8 19
8 25 0 273 132 273 145 0 6 -12 18 -27 25 -27 13 -27 14 -6 18 12 2 37 -4 55
-12 48 -23 108 -30 108 -14 0 7 50 38 111 68 61 30 115 61 122 68 8 10 4 19
-19 38 -30 27 -31 27 51 -4 l40 -15 154 80 c84 43 153 83 154 89 0 10 -72 54
-88 53 -5 0 -91 -40 -190 -90z"/>
<path d="M5884 7844 c15 -14 31 -23 34 -20 9 9 -30 46 -47 46 -11 -1 -8 -8 13
-26z"/>
<path d="M5758 7708 c7 -10 -17 -30 -99 -83 -60 -38 -109 -75 -109 -81 0 -6
84 -50 187 -98 215 -101 179 -101 346 2 99 61 123 82 97 82 -5 0 -100 43 -211
95 -199 94 -231 107 -211 83z"/>
<path d="M3380 7520 c0 -5 5 -10 10 -10 6 0 10 5 10 10 0 6 -4 10 -10 10 -5 0
-10 -4 -10 -10z"/>
<path d="M6100 7429 c-63 -44 -116 -83 -118 -88 -2 -7 66 -44 196 -103 60 -27
63 -28 95 -12 51 26 249 146 245 149 -8 6 -293 135 -298 134 -3 -1 -57 -37
-120 -80z"/>
<path d="M6793 7439 c-18 -12 -33 -26 -33 -32 0 -6 12 0 28 14 15 13 31 27 37
31 18 15 0 7 -32 -13z"/>
<path d="M3412 7438 c-7 -7 -12 -16 -12 -21 0 -5 7 -1 16 8 9 9 14 18 12 20
-2 3 -10 -1 -16 -7z"/>
<path d="M6815 7420 c-3 -6 1 -7 9 -4 18 7 21 14 7 14 -6 0 -13 -4 -16 -10z"/>
<path d="M3250 7391 c0 -5 5 -13 10 -16 6 -3 10 -2 10 4 0 5 -4 13 -10 16 -5
3 -10 2 -10 -4z"/>
<path d="M3225 7360 c3 -5 8 -10 11 -10 2 0 4 5 4 10 0 6 -5 10 -11 10 -5 0
-7 -4 -4 -10z"/>
<path d="M6674 7356 c-10 -8 -15 -18 -11 -22 4 -4 17 2 30 14 24 25 12 30 -19
8z"/>
<path d="M3455 7320 c-3 -5 -1 -10 4 -10 6 0 11 5 11 10 0 6 -2 10 -4 10 -3 0
-8 -4 -11 -10z"/>
<path d="M7258 5952 c19 -21 27 -20 19 3 -4 8 -13 15 -22 15 -13 0 -12 -3 3
-18z"/>
<path d="M7210 5931 c0 -6 5 -13 10 -16 6 -3 10 1 10 9 0 9 -4 16 -10 16 -5 0
-10 -4 -10 -9z"/>
<path d="M7255 5788 c-9 -22 4 -43 17 -30 7 7 7 16 0 29 -10 17 -11 17 -17 1z"/>
<path d="M7036 5771 c-4 -7 -5 -15 -2 -18 9 -9 19 4 14 18 -4 11 -6 11 -12 0z"/>
<path d="M3921 6516 c-8 -9 -11 -72 -9 -202 l3 -189 100 0 100 0 3 180 c1 99
0 190 -3 203 -5 21 -10 22 -94 22 -63 0 -92 -4 -100 -14z"/>
<path d="M4237 6513 c-4 -3 -7 -98 -7 -209 l0 -203 53 -15 c28 -8 64 -18 79
-22 38 -8 45 -20 53 -90 5 -49 4 -63 -10 -74 -15 -13 -45 -62 -45 -75 0 -3 13
-5 29 -5 36 0 71 40 71 82 0 42 15 65 65 96 l44 27 -34 75 -33 75 -41 -2 c-23
-1 -41 0 -41 2 0 7 84 44 90 40 4 -3 25 -43 46 -90 21 -47 44 -85 52 -85 8 0
11 7 8 18 -3 9 -9 35 -15 57 -5 22 -27 112 -50 200 -53 207 -51 205 -200 205
-59 0 -111 -3 -114 -7z"/>
<path d="M3924 6048 c-7 -24 16 -48 47 -48 18 0 49 25 49 39 0 16 -26 31 -56
31 -25 0 -34 -5 -40 -22z"/>
<path d="M6481 6074 c0 -11 3 -14 6 -6 3 7 2 16 -1 19 -3 4 -6 -2 -5 -13z"/>
<path d="M5677 5719 c-13 -8 -17 -20 -15 -42 l3 -32 -193 -3 -193 -2 3 -28 3
-27 198 -3 c213 -3 203 -5 198 48 -1 8 9 20 21 25 26 11 36 54 16 66 -16 11
-19 11 -41 -2z"/>
<path d="M6243 5895 c0 -22 2 -30 4 -17 2 12 2 30 0 40 -3 9 -5 -1 -4 -23z"/>
<path d="M6208 5683 l-3 -38 -188 -3 -188 -2 3 -28 3 -27 195 0 195 0 0 30 c0
24 5 31 25 35 20 4 25 11 25 35 0 26 -4 30 -32 33 -30 3 -32 1 -35 -35z"/>
<path d="M6791 5893 c-1 -24 4 -43 9 -43 12 0 12 24 0 60 -7 21 -8 19 -9 -17z"/>
<path d="M6760 5686 c0 -22 -6 -36 -16 -40 -9 -3 -92 -6 -185 -6 -142 0 -171
-2 -175 -15 -4 -8 -1 -22 6 -30 11 -13 43 -15 199 -13 l186 3 -1 32 c-2 26 2
33 20 35 16 2 22 11 24 36 3 30 1 32 -27 32 -29 0 -31 -3 -31 -34z"/>
<path d="M3514 5786 c-25 -25 -34 -43 -34 -67 0 -27 3 -31 11 -19 9 12 10 11
6 -7 -3 -13 0 -26 5 -30 7 -4 8 -1 3 8 -5 8 3 2 18 -13 30 -32 46 -34 86 -13
30 15 40 32 42 68 1 20 2 20 9 -3 7 -23 8 -22 9 10 1 47 -21 77 -67 90 -51 14
-50 14 -88 -24z m126 -8 c11 -12 20 -26 20 -31 0 -5 -9 2 -20 16 -15 19 -32
27 -63 30 l-42 4 42 1 c32 2 47 -3 63 -20z"/>
<path d="M4572 5795 c-28 -23 -32 -33 -32 -74 0 -59 22 -83 79 -85 81 -2 122
88 69 148 -35 40 -78 43 -116 11z m104 -17 c19 -23 19 -23 -1 -7 -11 9 -27 19
-35 22 -13 5 -13 6 1 6 9 1 24 -9 35 -21z m21 -90 c-3 -7 -5 -2 -5 12 0 14 2
19 5 13 2 -7 2 -19 0 -25z m-134 -8 c3 -11 1 -18 -4 -14 -5 3 -9 12 -9 20 0
20 7 17 13 -6z"/>
<path d="M2950 5430 c0 -11 5 -20 10 -20 6 0 10 9 10 20 0 11 -4 20 -10 20 -5
0 -10 -9 -10 -20z"/>
<path d="M4126 5435 c-11 -8 -15 -15 -9 -15 6 0 16 7 23 15 16 19 11 19 -14 0z"/>
<path d="M6800 5440 c0 -5 5 -10 11 -10 5 0 7 5 4 10 -3 6 -8 10 -11 10 -2 0
-4 -4 -4 -10z"/>
<path d="M4015 5430 c-3 -5 1 -10 10 -10 9 0 13 5 10 10 -3 6 -8 10 -10 10 -2
0 -7 -4 -10 -10z"/>
<path d="M3980 5420 c0 -5 5 -10 10 -10 6 0 10 5 10 10 0 6 -4 10 -10 10 -5 0
-10 -4 -10 -10z"/>
<path d="M7118 5400 c5 -36 7 -35 16 3 4 19 3 27 -7 27 -9 0 -12 -9 -9 -30z"/>
<path d="M6720 5400 c0 -11 4 -20 8 -20 4 0 8 9 8 20 0 11 -4 20 -8 20 -4 0
-8 -9 -8 -20z"/>
<path d="M6540 5378 c0 -33 27 -58 36 -33 4 10 -1 25 -15 38 l-21 21 0 -26z"/>
<path d="M7395 5391 c-3 -5 -1 -12 5 -16 5 -3 10 1 10 9 0 18 -6 21 -15 7z"/>
<path d="M7145 5360 c3 -5 8 -10 11 -10 2 0 4 5 4 10 0 6 -5 10 -11 10 -5 0
-7 -4 -4 -10z"/>
<path d="M6690 5350 c0 -5 5 -10 10 -10 6 0 10 5 10 10 0 6 -4 10 -10 10 -5 0
-10 -4 -10 -10z"/>
<path d="M6770 5350 c0 -5 5 -10 10 -10 6 0 10 5 10 10 0 6 -4 10 -10 10 -5 0
-10 -4 -10 -10z"/>
<path d="M2650 5330 c19 -13 30 -13 30 0 0 6 -10 10 -22 10 -19 0 -20 -2 -8
-10z"/>
<path d="M7430 5329 c0 -5 5 -7 10 -4 6 3 10 8 10 11 0 2 -4 4 -10 4 -5 0 -10
-5 -10 -11z"/>
<path d="M2500 5320 c0 -5 5 -10 10 -10 6 0 10 5 10 10 0 6 -4 10 -10 10 -5 0
-10 -4 -10 -10z"/>
<path d="M3035 5320 c3 -5 8 -10 11 -10 2 0 4 5 4 10 0 6 -5 10 -11 10 -5 0
-7 -4 -4 -10z"/>
<path d="M6585 5320 c4 -6 11 -8 16 -5 14 9 11 15 -7 15 -8 0 -12 -5 -9 -10z"/>
<path d="M7300 5300 c0 -5 5 -10 10 -10 6 0 10 5 10 10 0 6 -4 10 -10 10 -5 0
-10 -4 -10 -10z"/>
<path d="M5282 4938 c-14 -14 -16 -28 -3 -28 9 0 24 30 18 36 -2 2 -9 -2 -15
-8z"/>
<path d="M5305 4510 c-3 -5 -1 -10 4 -10 6 0 11 5 11 10 0 6 -2 10 -4 10 -3 0
-8 -4 -11 -10z"/>
<path d="M5380 4459 c0 -5 5 -7 10 -4 6 3 10 8 10 11 0 2 -4 4 -10 4 -5 0 -10
-5 -10 -11z"/>
<path d="M5636 4311 c-19 -35 -8 -41 19 -11 13 15 15 24 8 31 -8 8 -16 3 -27
-20z"/>
<path d="M5666 4294 c-9 -22 3 -32 14 -14 12 19 12 30 1 30 -5 0 -12 -7 -15
-16z"/>
<path d="M5627 4183 c-4 -3 -7 -11 -7 -17 0 -6 5 -5 12 2 6 6 9 14 7 17 -3 3
-9 2 -12 -2z"/>
<path d="M5571 3913 c-1 -18 4 -33 9 -33 12 0 12 17 0 45 -7 17 -9 15 -9 -12z"/>
<path d="M5554 3837 c-3 -9 -15 -17 -25 -17 -25 0 -24 -16 0 -23 26 -6 60 28
43 45 -8 8 -13 7 -18 -5z"/>
<path d="M5440 3658 c0 -9 -3 -25 -6 -35 -4 -11 -3 -14 3 -7 4 6 13 13 20 15
8 3 8 9 -3 23 -11 16 -14 17 -14 4z"/>
<path d="M6276 4342 c-3 -6 -1 -14 5 -17 14 -9 20 -2 10 14 -6 8 -11 9 -15 3z"/>
<path d="M6330 4266 c0 -9 5 -16 10 -16 6 0 10 4 10 9 0 6 -4 13 -10 16 -5 3
-10 -1 -10 -9z"/>
<path d="M6275 4180 c-3 -5 -1 -10 4 -10 6 0 11 5 11 10 0 6 -2 10 -4 10 -3 0
-8 -4 -11 -10z"/>
<path d="M6245 4110 c3 -5 8 -10 11 -10 2 0 4 5 4 10 0 6 -5 10 -11 10 -5 0
-7 -4 -4 -10z"/>
<path d="M6315 4000 c3 -5 11 -10 16 -10 6 0 7 5 4 10 -3 6 -11 10 -16 10 -6
0 -7 -4 -4 -10z"/>
<path d="M6290 3820 c0 -5 5 -10 11 -10 5 0 7 5 4 10 -3 6 -8 10 -11 10 -2 0
-4 -4 -4 -10z"/>
<path d="M6266 3781 c-4 -5 -2 -12 3 -15 5 -4 12 -2 15 3 4 5 2 12 -3 15 -5 4
-12 2 -15 -3z"/>
<path d="M6356 3677 c3 -10 9 -15 12 -12 3 3 0 11 -7 18 -10 9 -11 8 -5 -6z"/>
<path d="M3270 4805 c0 -8 4 -15 10 -15 5 0 7 7 4 15 -4 8 -8 15 -10 15 -2 0
-4 -7 -4 -15z"/>
<path d="M2407 4763 c-6 -30 16 -41 38 -20 21 22 19 34 -9 39 -19 4 -25 0 -29
-19z"/>
<path d="M2451 4724 c-9 -11 -10 -19 -3 -26 13 -13 47 16 37 32 -8 14 -18 12
-34 -6z"/>
<path d="M2385 4720 c-3 -5 -1 -10 4 -10 6 0 11 5 11 10 0 6 -2 10 -4 10 -3 0
-8 -4 -11 -10z"/>
<path d="M2585 4570 c-22 -4 -43 -6 -47 -3 -5 2 -8 0 -8 -5 0 -14 28 -23 35
-12 4 6 17 10 30 10 13 0 27 5 30 10 3 6 5 9 3 9 -2 -1 -21 -5 -43 -9z"/>
<path d="M2650 4559 c0 -5 5 -7 10 -4 6 3 10 8 10 11 0 2 -4 4 -10 4 -5 0 -10
-5 -10 -11z"/>
<path d="M2385 4477 c-4 -10 -5 -21 -1 -24 10 -10 18 4 13 24 -4 17 -4 17 -12
0z"/>
<path d="M2325 4440 c-3 -6 -3 -14 0 -20 3 -5 2 -18 -4 -28 -5 -10 -6 -24 -2
-31 6 -9 14 -4 31 19 l22 31 -20 20 c-12 11 -23 15 -27 9z"/>
<path d="M2476 4431 c-4 -7 -5 -15 -2 -18 9 -9 19 4 14 18 -4 11 -6 11 -12 0z"/>
<path d="M2407 4413 c-4 -3 -7 -11 -7 -17 0 -6 5 -5 12 2 6 6 9 14 7 17 -3 3
-9 2 -12 -2z"/>
<path d="M3525 4331 c-3 -5 -1 -12 5 -16 5 -3 10 1 10 9 0 18 -6 21 -15 7z"/>
<path d="M2445 4310 c3 -5 8 -10 11 -10 2 0 4 5 4 10 0 6 -5 10 -11 10 -5 0
-7 -4 -4 -10z"/>
<path d="M2590 4189 c0 -5 5 -7 10 -4 6 3 10 8 10 11 0 2 -4 4 -10 4 -5 0 -10
-5 -10 -11z"/>
<path d="M3435 4090 c-3 -5 1 -10 9 -10 9 0 16 5 16 10 0 6 -4 10 -9 10 -6 0
-13 -4 -16 -10z"/>
<path d="M2397 3983 c-4 -3 -7 -11 -7 -17 0 -6 5 -5 12 2 6 6 9 14 7 17 -3 3
-9 2 -12 -2z"/>
<path d="M3587 3906 c-3 -8 -3 -17 1 -21 7 -6 8 -10 11 -37 1 -10 3 -10 9 0
10 15 3 72 -8 72 -4 0 -10 -6 -13 -14z"/>
<path d="M3255 3690 c-3 -5 1 -13 10 -16 22 -9 29 1 11 15 -10 8 -16 9 -21 1z"/>
<path d="M7349 4140 c-54 -18 -107 -63 -142 -119 -32 -53 -29 -141 8 -210 117
-215 455 -139 455 102 0 91 -38 157 -116 203 -62 36 -141 45 -205 24z"/>
<path d="M7255 3620 c-4 -6 -11 -8 -16 -5 -5 4 -9 1 -9 -4 0 -15 13 -14 36 4
10 8 14 15 7 15 -6 0 -15 -5 -18 -10z"/>
<path d="M7535 3570 c3 -5 8 -10 11 -10 2 0 4 5 4 10 0 6 -5 10 -11 10 -5 0
-7 -4 -4 -10z"/>
<path d="M7611 3444 c0 -11 3 -14 6 -6 3 7 2 16 -1 19 -3 4 -6 -2 -5 -13z"/>
<path d="M4600 4481 c0 -5 7 -12 16 -15 24 -9 27 -7 10 9 -17 17 -26 19 -26 6z"/>
<path d="M4570 4470 c-9 -6 -10 -10 -3 -10 6 0 15 5 18 10 8 12 4 12 -15 0z"/>
<path d="M4660 4460 c0 -5 5 -10 11 -10 5 0 7 5 4 10 -3 6 -8 10 -11 10 -2 0
-4 -4 -4 -10z"/>
<path d="M4525 4440 c4 -6 11 -8 16 -5 14 9 11 15 -7 15 -8 0 -12 -5 -9 -10z"/>
<path d="M4667 4423 c-12 -12 -7 -22 8 -17 8 4 15 10 15 15 0 11 -14 12 -23 2z"/>
<path d="M3980 4350 c0 -5 5 -10 10 -10 6 0 10 5 10 10 0 6 -4 10 -10 10 -5 0
-10 -4 -10 -10z"/>
<path d="M3997 4314 c-4 -4 -7 -14 -7 -23 0 -11 3 -12 11 -4 6 6 10 16 7 23
-2 6 -7 8 -11 4z"/>
<path d="M4618 4313 c7 -3 16 -2 19 1 4 3 -2 6 -13 5 -11 0 -14 -3 -6 -6z"/>
<path d="M4840 4286 c0 -21 5 -26 25 -26 14 0 25 5 25 10 0 6 -4 10 -9 10 -5
0 -17 7 -25 16 -15 14 -16 13 -16 -10z"/>
<path d="M3940 4266 c0 -16 20 -44 20 -28 0 6 7 12 15 12 25 0 17 17 -10 22
-15 3 -25 1 -25 -6z"/>
<path d="M4055 4260 c-3 -6 1 -7 9 -4 18 7 21 14 7 14 -6 0 -13 -4 -16 -10z"/>
<path d="M4425 4256 c18 -13 17 -14 -11 -20 -98 -22 -153 -109 -128 -203 9
-34 35 -33 114 6 92 45 140 90 140 133 0 31 -22 57 -48 58 -8 0 -25 9 -39 20
-14 11 -30 20 -36 20 -6 0 -2 -6 8 -14z"/>
<path d="M3890 4250 c0 -5 5 -10 11 -10 5 0 7 5 4 10 -3 6 -8 10 -11 10 -2 0
-4 -4 -4 -10z"/>
<path d="M4580 4190 c0 -5 7 -10 15 -10 8 0 15 5 15 10 0 6 -7 10 -15 10 -8 0
-15 -4 -15 -10z"/>
<path d="M4990 4191 c0 -5 5 -13 10 -16 6 -3 10 -2 10 4 0 5 -4 13 -10 16 -5
3 -10 2 -10 -4z"/>
<path d="M4020 4180 c0 -5 5 -10 11 -10 5 0 7 5 4 10 -3 6 -8 10 -11 10 -2 0
-4 -4 -4 -10z"/>
<path d="M4885 4180 c-3 -5 -2 -10 4 -10 5 0 13 5 16 10 3 6 2 10 -4 10 -5 0
-13 -4 -16 -10z"/>
<path d="M4664 4155 c-18 -14 -18 -14 9 -15 17 0 27 5 27 15 0 19 -11 19 -36
0z"/>
<path d="M4797 4164 c-10 -10 -9 -42 2 -49 14 -8 19 6 12 33 -3 13 -9 20 -14
16z"/>
<path d="M4150 4151 c0 -6 5 -13 10 -16 6 -3 10 1 10 9 0 9 -4 16 -10 16 -5 0
-10 -4 -10 -9z"/>
<path d="M4903 4113 c-34 -7 -29 -33 6 -33 16 0 42 -5 57 -10 15 -6 29 -8 32
-5 4 3 -4 8 -16 12 -12 3 -22 10 -22 15 0 5 -9 6 -20 3 -11 -3 -20 -2 -20 4 0
5 8 12 18 14 22 6 -5 6 -35 0z"/>
<path d="M3890 4090 c0 -5 5 -10 11 -10 5 0 7 5 4 10 -3 6 -8 10 -11 10 -2 0
-4 -4 -4 -10z"/>
<path d="M4835 4060 c-8 -13 4 -32 16 -25 12 8 12 35 0 35 -6 0 -13 -4 -16
-10z"/>
<path d="M4896 4044 c-4 -10 -1 -14 6 -12 15 5 23 28 10 28 -5 0 -13 -7 -16
-16z"/>
<path d="M4845 3993 c7 -30 13 -39 19 -32 8 8 -6 59 -16 59 -6 0 -7 -11 -3
-27z"/>
<path d="M4755 4000 c-3 -5 -1 -10 4 -10 6 0 11 5 11 10 0 6 -2 10 -4 10 -3 0
-8 -4 -11 -10z"/>
<path d="M4800 3979 c0 -5 5 -7 10 -4 6 3 10 8 10 11 0 2 -4 4 -10 4 -5 0 -10
-5 -10 -11z"/>
<path d="M4486 3954 c-5 -14 -4 -15 9 -4 17 14 19 20 6 20 -5 0 -12 -7 -15
-16z"/>
<path d="M4090 3940 c0 -5 5 -10 11 -10 5 0 7 5 4 10 -3 6 -8 10 -11 10 -2 0
-4 -4 -4 -10z"/>
<path d="M4075 3700 c-3 -5 -1 -10 4 -10 6 0 11 5 11 10 0 6 -2 10 -4 10 -3 0
-8 -4 -11 -10z"/>
<path d="M3985 3680 c-8 -13 3 -30 21 -30 18 0 18 14 0 29 -10 8 -16 9 -21 1z"/>
<path d="M4126 3644 c-11 -27 -7 -37 9 -24 16 14 20 40 6 40 -5 0 -12 -7 -15
-16z"/>
<path d="M3990 3620 c0 -5 5 -10 10 -10 6 0 10 5 10 10 0 6 -4 10 -10 10 -5 0
-10 -4 -10 -10z"/>
<path d="M4255 3600 c-3 -5 1 -10 9 -10 9 0 16 5 16 10 0 6 -4 10 -9 10 -6 0
-13 -4 -16 -10z"/>
<path d="M4230 3582 c0 -12 19 -26 26 -19 2 2 -2 10 -11 17 -9 8 -15 8 -15 2z"/>
<path d="M4216 3445 c-10 -26 3 -42 30 -37 13 2 27 9 30 14 3 5 -6 6 -21 2
-24 -6 -27 -4 -20 15 7 24 -10 29 -19 6z"/>
<path d="M4840 3440 c0 -5 5 -10 11 -10 5 0 7 5 4 10 -3 6 -8 10 -11 10 -2 0
-4 -4 -4 -10z"/>
<path d="M4560 3396 c0 -9 5 -16 10 -16 6 0 10 4 10 9 0 6 -4 13 -10 16 -5 3
-10 -1 -10 -9z"/>
<path d="M4650 3370 c0 -5 5 -10 10 -10 6 0 10 5 10 10 0 6 -4 10 -10 10 -5 0
-10 -4 -10 -10z"/>
<path d="M3940 3125 c0 -8 5 -15 10 -15 6 0 10 7 10 15 0 8 -4 15 -10 15 -5 0
-10 -7 -10 -15z"/>
<path d="M4095 3130 c3 -5 8 -10 11 -10 2 0 4 5 4 10 0 6 -5 10 -11 10 -5 0
-7 -4 -4 -10z"/>
<path d="M3700 3104 c0 -7 -7 -17 -16 -22 -14 -8 -14 -10 0 -21 11 -9 16 -10
16 -2 0 6 4 11 9 11 6 0 9 -8 8 -19 -1 -17 -7 -18 -61 -13 -42 3 -57 2 -52 -6
4 -6 14 -8 24 -5 15 6 15 5 3 -10 -12 -15 -10 -18 14 -27 14 -5 33 -10 41 -10
8 0 14 -7 14 -15 0 -17 9 -19 30 -5 13 8 12 10 -2 10 -10 0 -18 7 -18 15 0 10
10 15 30 15 17 0 30 5 30 10 0 6 -6 10 -14 10 -15 0 -29 27 -21 40 3 5 -4 11
-15 15 -26 8 -16 25 16 25 13 0 24 4 24 9 0 5 -13 9 -30 9 -17 -1 -30 -6 -30
-14z"/>
<path d="M4055 3110 c-3 -5 1 -10 9 -10 9 0 16 5 16 10 0 6 -4 10 -9 10 -6 0
-13 -4 -16 -10z"/>
<path d="M3905 3079 c0 -24 6 -34 24 -41 19 -6 22 -6 13 4 -5 7 -12 24 -14 37
-5 36 -24 36 -23 0z"/>
<path d="M3765 3070 c3 -5 13 -10 21 -10 8 0 12 5 9 10 -3 6 -13 10 -21 10 -8
0 -12 -4 -9 -10z"/>
<path d="M3785 3051 c-27 -4 -36 -9 -27 -15 8 -5 32 -3 58 4 34 10 48 10 57 1
8 -8 7 -11 -6 -11 -9 0 -17 -4 -17 -10 0 -11 11 -13 34 -4 12 5 13 10 5 25
-10 20 -29 22 -104 10z"/>
<path d="M3795 3010 c3 -5 14 -10 23 -10 15 0 15 2 2 10 -20 13 -33 13 -25 0z"/>
<path d="M3975 3010 c-3 -5 1 -10 10 -10 9 0 13 5 10 10 -3 6 -8 10 -10 10 -2
0 -7 -4 -10 -10z"/>
<path d="M3755 2980 c-3 -5 1 -10 10 -10 9 0 13 5 10 10 -3 6 -8 10 -10 10 -2
0 -7 -4 -10 -10z"/>
<path d="M3875 2980 c3 -5 8 -10 11 -10 2 0 4 5 4 10 0 6 -5 10 -11 10 -5 0
-7 -4 -4 -10z"/>
<path d="M3860 2880 c0 -5 5 -10 10 -10 6 0 10 5 10 10 0 6 -4 10 -10 10 -5 0
-10 -4 -10 -10z"/>
<path d="M4192 2870 c-12 -19 -11 -20 8 -8 11 7 20 16 20 20 0 15 -15 8 -28
-12z"/>
<path d="M4215 2860 c-3 -5 1 -10 9 -10 9 0 16 5 16 10 0 6 -4 10 -9 10 -6 0
-13 -4 -16 -10z"/>
<path d="M4355 2841 c-3 -5 -1 -12 5 -16 5 -3 10 1 10 9 0 18 -6 21 -15 7z"/>
<path d="M4310 2825 c-10 -12 -10 -18 0 -30 6 -8 9 -18 7 -22 -3 -5 3 -9 14
-9 12 0 19 7 19 18 0 10 -6 17 -12 16 -8 -2 -13 7 -12 20 1 26 0 26 -16 7z"/>
<path d="M4196 2797 c3 -10 9 -15 12 -12 3 3 0 11 -7 18 -10 9 -11 8 -5 -6z"/>
<path d="M4280 2796 c0 -9 5 -16 10 -16 6 0 10 4 10 9 0 6 -4 13 -10 16 -5 3
-10 -1 -10 -9z"/>
<path d="M4058 2773 c7 -3 16 -2 19 1 4 3 -2 6 -13 5 -11 0 -14 -3 -6 -6z"/>
<path d="M4372 2680 c2 -33 12 -39 22 -14 10 27 7 44 -9 44 -11 0 -15 -9 -13
-30z"/>
<path d="M4310 2680 c0 -5 5 -10 11 -10 5 0 7 5 4 10 -3 6 -8 10 -11 10 -2 0
-4 -4 -4 -10z"/>
<path d="M4200 2649 c0 -5 5 -7 10 -4 6 3 10 8 10 11 0 2 -4 4 -10 4 -5 0 -10
-5 -10 -11z"/>
<path d="M4250 2640 c0 -5 5 -10 10 -10 6 0 10 5 10 10 0 6 -4 10 -10 10 -5 0
-10 -4 -10 -10z"/>
<path d="M4030 2611 c0 -5 10 -11 22 -14 17 -5 19 -9 9 -21 -7 -8 -8 -17 -3
-20 18 -11 20 33 3 48 -20 18 -31 20 -31 7z"/>
<path d="M4116 2595 c-3 -8 -1 -15 4 -15 6 0 10 7 10 15 0 8 -2 15 -4 15 -2 0
-6 -7 -10 -15z"/>
<path d="M3870 2549 c0 -5 5 -7 10 -4 6 3 10 8 10 11 0 2 -4 4 -10 4 -5 0 -10
-5 -10 -11z"/>
<path d="M4016 2544 c-4 -10 -1 -14 6 -12 15 5 23 28 10 28 -5 0 -13 -7 -16
-16z"/>
<path d="M4103 2535 c0 -32 9 -32 24 0 10 22 9 25 -7 25 -12 0 -17 -8 -17 -25z"/>
<path d="M4003 2479 c3 -9 1 -21 -5 -27 -11 -11 -2 -52 13 -52 12 0 12 17 -1
25 -7 4 -6 13 1 27 8 15 8 23 -2 32 -9 8 -11 7 -6 -5z"/>
<path d="M3950 2450 c0 -5 5 -10 10 -10 6 0 10 5 10 10 0 6 -4 10 -10 10 -5 0
-10 -4 -10 -10z"/>
<path d="M3949 2403 c0 -10 -3 -13 -6 -5 -6 15 -23 16 -23 1 0 -6 6 -17 14
-24 11 -12 15 -10 24 10 7 15 8 26 2 30 -6 4 -10 -2 -11 -12z"/>
<path d="M4006 2362 c5 -4 12 -11 15 -15 3 -5 9 -2 12 5 3 9 -3 14 -15 15 -11
1 -16 -1 -12 -5z"/>
<path d="M3990 2339 c0 -5 5 -7 10 -4 6 3 10 8 10 11 0 2 -4 4 -10 4 -5 0 -10
-5 -10 -11z"/>
<path d="M4120 2284 c0 -8 5 -12 10 -9 6 4 8 11 5 16 -9 14 -15 11 -15 -7z"/>
<path d="M3872 2281 c2 -7 7 -12 11 -12 12 1 9 15 -3 20 -7 2 -11 -2 -8 -8z"/>
<path d="M3986 2263 c-4 -11 -2 -14 9 -9 8 3 15 1 15 -4 0 -6 7 -10 16 -10 22
0 13 21 -13 31 -15 6 -23 3 -27 -8z"/>
<path d="M3937 2255 c-12 -8 -14 -15 -8 -20 6 -3 11 -2 11 4 0 5 8 11 18 13 9
2 12 6 7 10 -6 3 -18 0 -28 -7z"/>
<path d="M3980 1970 c0 -5 5 -10 11 -10 5 0 7 5 4 10 -3 6 -8 10 -11 10 -2 0
-4 -4 -4 -10z"/>
<path d="M3924 1945 c4 -24 16 -30 16 -7 0 12 -4 22 -9 22 -5 0 -8 -7 -7 -15z"/>
<path d="M4120 1934 c0 -8 5 -12 10 -9 6 4 8 11 5 16 -9 14 -15 11 -15 -7z"/>
<path d="M4040 1910 c0 -5 5 -10 10 -10 6 0 10 5 10 10 0 6 -4 10 -10 10 -5 0
-10 -4 -10 -10z"/>
<path d="M7020 3134 c0 -8 5 -12 10 -9 6 3 10 10 10 16 0 5 -4 9 -10 9 -5 0
-10 -7 -10 -16z"/>
<path d="M7130 3111 c0 -5 8 -12 17 -15 12 -5 14 -9 5 -18 -14 -14 -16 -38 -3
-38 15 0 20 53 6 67 -16 15 -25 17 -25 4z"/>
<path d="M7022 3015 c-8 -10 -9 -15 -2 -15 6 0 17 -15 25 -32 8 -18 14 -28 15
-21 0 7 7 10 15 7 22 -9 19 19 -6 50 -23 30 -29 31 -47 11z"/>
<path d="M7185 3020 c-4 -7 0 -19 9 -28 20 -21 26 -13 10 16 -8 16 -14 20 -19
12z"/>
<path d="M7150 2973 c-13 -15 -12 -16 4 -10 10 4 20 7 22 7 2 0 4 5 4 10 0 15
-13 12 -30 -7z"/>
<path d="M7080 2905 c0 -8 5 -15 10 -15 6 0 10 7 10 15 0 8 -4 15 -10 15 -5 0
-10 -7 -10 -15z"/>
<path d="M7040 2891 c0 -5 5 -13 10 -16 6 -3 10 -2 10 4 0 5 -4 13 -10 16 -5
3 -10 2 -10 -4z"/>
<path d="M7110 2800 c0 -5 5 -10 10 -10 6 0 10 5 10 10 0 6 -4 10 -10 10 -5 0
-10 -4 -10 -10z"/>
<path d="M7725 2800 c-3 -5 -1 -10 4 -10 6 0 11 5 11 10 0 6 -2 10 -4 10 -3 0
-8 -4 -11 -10z"/>
<path d="M6917 2763 c-10 -9 -9 -23 2 -23 5 0 11 7 15 15 5 15 -5 20 -17 8z"/>
<path d="M7096 2721 c-4 -7 -5 -15 -2 -18 9 -9 19 4 14 18 -4 11 -6 11 -12 0z"/>
<path d="M7615 2720 c3 -5 8 -10 11 -10 2 0 4 5 4 10 0 6 -5 10 -11 10 -5 0
-7 -4 -4 -10z"/>
<path d="M7585 2650 c-3 -5 -15 -10 -26 -10 -10 0 -19 -4 -19 -10 0 -17 47
-11 54 6 3 9 13 14 21 10 8 -3 17 -1 20 4 4 6 -5 10 -19 10 -14 0 -28 -4 -31
-10z"/>
<path d="M7660 2584 c0 -8 5 -12 10 -9 6 3 10 10 10 16 0 5 -4 9 -10 9 -5 0
-10 -7 -10 -16z"/>
<path d="M7097 2523 c-15 -15 -7 -43 13 -43 11 0 20 5 20 10 0 6 -4 10 -10 10
-5 0 -10 5 -10 11 0 5 5 7 10 4 6 -3 10 -1 10 4 0 12 -23 15 -33 4z"/>
<path d="M7470 2520 c0 -5 5 -10 10 -10 6 0 10 5 10 10 0 6 -4 10 -10 10 -5 0
-10 -4 -10 -10z"/>
<path d="M7155 2500 c3 -5 8 -10 11 -10 2 0 4 5 4 10 0 6 -5 10 -11 10 -5 0
-7 -4 -4 -10z"/>
<path d="M6941 2441 c-11 -7 -10 -13 5 -35 11 -14 24 -26 30 -26 6 0 16 -10
21 -22 10 -20 11 -18 11 20 0 23 -4 42 -9 42 -5 0 -9 -7 -9 -15 0 -24 -29 -6
-32 21 -2 17 -7 21 -17 15z"/>
<path d="M7391 2404 c0 -11 3 -14 6 -6 3 7 2 16 -1 19 -3 4 -6 -2 -5 -13z"/>
<path d="M7490 2390 c0 -5 5 -10 10 -10 6 0 10 5 10 10 0 6 -4 10 -10 10 -5 0
-10 -4 -10 -10z"/>
<path d="M7432 2370 c-7 -12 -18 -18 -25 -13 -7 4 -7 1 2 -10 16 -20 43 -23
35 -3 -3 7 2 16 10 19 9 4 16 11 16 17 0 17 -25 11 -38 -10z"/>
<path d="M7040 2359 c0 -5 5 -7 10 -4 6 3 10 8 10 11 0 2 -4 4 -10 4 -5 0 -10
-5 -10 -11z"/>
<path d="M7517 2329 c-13 -8 -17 -18 -13 -35 7 -28 -5 -31 -40 -7 -23 15 -26
15 -42 0 -11 -12 -12 -17 -3 -17 8 0 10 -7 6 -21 -6 -18 -4 -20 17 -14 12 4
25 12 26 16 6 15 32 10 32 -6 0 -21 28 -8 36 17 4 12 1 24 -7 29 -11 8 -11 12
4 23 31 24 18 35 -16 15z"/>
<path d="M6950 2320 c-8 -5 -12 -12 -9 -15 4 -3 12 1 19 10 14 17 11 19 -10 5z"/>
<path d="M7006 2312 c-3 -6 -2 -14 4 -17 6 -4 8 -15 5 -25 -7 -23 13 -37 21
-16 3 9 12 16 19 16 7 0 13 11 13 25 0 14 -4 25 -9 25 -5 0 -9 -7 -9 -15 0
-20 -17 -19 -28 1 -6 11 -12 13 -16 6z"/>
<path d="M7700 2270 c0 -5 5 -10 10 -10 6 0 10 5 10 10 0 6 -4 10 -10 10 -5 0
-10 -4 -10 -10z"/>
<path d="M7644 2206 c-10 -8 -16 -17 -12 -21 8 -8 48 13 48 25 0 14 -13 12
-36 -4z"/>
<path d="M7005 2180 c-3 -5 -1 -10 4 -10 6 0 11 5 11 10 0 6 -2 10 -4 10 -3 0
-8 -4 -11 -10z"/>
<path d="M7050 2177 c0 -9 -4 -17 -10 -17 -5 0 -10 -4 -10 -10 0 -16 30 -11
37 6 3 8 1 20 -6 27 -8 8 -11 7 -11 -6z"/>
<path d="M7408 2163 c7 -3 16 -2 19 1 4 3 -2 6 -13 5 -11 0 -14 -3 -6 -6z"/>
<path d="M7570 2155 c0 -9 9 -15 21 -15 18 0 19 2 9 15 -7 8 -16 15 -21 15 -5
0 -9 -7 -9 -15z"/>
<path d="M7540 2131 c0 -5 7 -11 15 -15 8 -3 15 -1 15 3 0 5 -7 11 -15 15 -8
3 -15 1 -15 -3z"/>
<path d="M7620 2130 c0 -5 5 -10 10 -10 6 0 10 5 10 10 0 6 -4 10 -10 10 -5 0
-10 -4 -10 -10z"/>
<path d="M7450 2090 c0 -5 5 -10 10 -10 6 0 10 5 10 10 0 6 -4 10 -10 10 -5 0
-10 -4 -10 -10z"/>
<path d="M7529 2054 c-10 -13 -10 -17 2 -24 9 -6 15 -5 18 3 2 7 8 18 14 25
15 19 -18 15 -34 -4z"/>
<path d="M7105 2030 c-4 -6 5 -10 19 -10 14 0 26 5 26 10 0 6 -9 10 -19 10
-11 0 -23 -4 -26 -10z"/>
<path d="M7620 2030 c0 -5 5 -10 10 -10 6 0 10 5 10 10 0 6 -4 10 -10 10 -5 0
-10 -4 -10 -10z"/>
<path d="M7670 2030 c0 -5 5 -10 10 -10 6 0 10 5 10 10 0 6 -4 10 -10 10 -5 0
-10 -4 -10 -10z"/>
<path d="M7585 2000 c3 -5 8 -10 11 -10 2 0 4 5 4 10 0 6 -5 10 -11 10 -5 0
-7 -4 -4 -10z"/>
<path d="M7710 1960 c0 -5 5 -10 10 -10 6 0 10 5 10 10 0 6 -4 10 -10 10 -5 0
-10 -4 -10 -10z"/>
<path d="M7640 1929 c0 -5 5 -7 10 -4 6 3 10 8 10 11 0 2 -4 4 -10 4 -5 0 -10
-5 -10 -11z"/>
<path d="M7590 1899 c0 -5 6 -9 13 -10 62 -5 87 -5 87 3 0 9 1 9 -57 13 -24 2
-43 -1 -43 -6z"/>
<path d="M7740 1900 c0 -5 9 -10 21 -10 11 0 17 5 14 10 -3 6 -13 10 -21 10
-8 0 -14 -4 -14 -10z"/>
<path d="M2935 2830 c-3 -5 1 -10 9 -10 9 0 16 5 16 10 0 6 -4 10 -9 10 -6 0
-13 -4 -16 -10z"/>
<path d="M3240 2805 c0 -8 5 -15 10 -15 6 0 10 7 10 15 0 8 -4 15 -10 15 -5 0
-10 -7 -10 -15z"/>
<path d="M3120 2800 c0 -5 5 -10 10 -10 6 0 10 5 10 10 0 6 -4 10 -10 10 -5 0
-10 -4 -10 -10z"/>
<path d="M2740 2756 c0 -9 5 -16 10 -16 6 0 10 4 10 9 0 6 -4 13 -10 16 -5 3
-10 -1 -10 -9z"/>
<path d="M3160 2761 c0 -16 28 -20 34 -5 4 9 -1 14 -14 14 -11 0 -20 -4 -20
-9z"/>
<path d="M3050 2750 c0 -5 5 -10 11 -10 5 0 7 5 4 10 -3 6 -8 10 -11 10 -2 0
-4 -4 -4 -10z"/>
<path d="M3116 2731 c-3 -5 5 -11 19 -13 20 -4 23 -3 14 8 -13 16 -25 18 -33
5z"/>
<path d="M2940 2709 c0 -5 5 -7 10 -4 6 3 10 8 10 11 0 2 -4 4 -10 4 -5 0 -10
-5 -10 -11z"/>
<path d="M3050 2700 c0 -5 7 -10 16 -10 8 0 12 5 9 10 -3 6 -10 10 -16 10 -5
0 -9 -4 -9 -10z"/>
<path d="M3113 2683 c9 -9 20 -13 24 -9 4 4 1 11 -7 16 -25 16 -35 11 -17 -7z"/>
<path d="M2780 2640 c-9 -6 -10 -10 -3 -10 6 0 15 5 18 10 8 12 4 12 -15 0z"/>
<path d="M2639 2589 c12 -12 25 -19 28 -15 7 7 -23 36 -38 36 -7 0 -3 -9 10
-21z"/>
<path d="M2605 2580 c3 -5 11 -10 16 -10 6 0 7 5 4 10 -3 6 -11 10 -16 10 -6
0 -7 -4 -4 -10z"/>
<path d="M2800 2579 c0 -5 5 -7 10 -4 6 3 10 8 10 11 0 2 -4 4 -10 4 -5 0 -10
-5 -10 -11z"/>
<path d="M2617 2554 c-4 -4 -7 -17 -7 -28 1 -19 1 -20 11 -3 11 19 8 43 -4 31z"/>
<path d="M2618 2455 c-8 -8 2 -45 13 -45 10 0 10 8 0 33 -3 10 -9 15 -13 12z"/>
<path d="M3150 2409 c0 -5 5 -7 10 -4 6 3 10 8 10 11 0 2 -4 4 -10 4 -5 0 -10
-5 -10 -11z"/>
<path d="M3125 2370 c-3 -5 -1 -10 4 -10 6 0 11 5 11 10 0 6 -2 10 -4 10 -3 0
-8 -4 -11 -10z"/>
<path d="M2710 2360 c0 -5 5 -10 11 -10 5 0 7 5 4 10 -3 6 -8 10 -11 10 -2 0
-4 -4 -4 -10z"/>
<path d="M2760 2360 c0 -5 5 -10 11 -10 5 0 7 5 4 10 -3 6 -8 10 -11 10 -2 0
-4 -4 -4 -10z"/>
<path d="M3306 2334 c-9 -24 -7 -27 9 -10 17 17 19 26 6 26 -5 0 -12 -7 -15
-16z"/>
<path d="M2818 2333 c7 -3 16 -2 19 1 4 3 -2 6 -13 5 -11 0 -14 -3 -6 -6z"/>
<path d="M3322 2262 c-1 -33 2 -38 24 -40 13 -1 24 3 24 9 0 6 -7 9 -15 6 -20
-8 -30 11 -15 28 6 8 9 19 5 25 -13 21 -23 9 -23 -28z"/>
<path d="M2975 2270 c-3 -5 -2 -10 4 -10 5 0 13 5 16 10 3 6 2 10 -4 10 -5 0
-13 -4 -16 -10z"/>
<path d="M3205 2260 c-3 -5 -1 -10 4 -10 6 0 11 5 11 10 0 6 -2 10 -4 10 -3 0
-8 -4 -11 -10z"/>
<path d="M3210 2210 c0 -5 5 -10 10 -10 6 0 10 5 10 10 0 6 -4 10 -10 10 -5 0
-10 -4 -10 -10z"/>
<path d="M3300 2200 c0 -5 5 -10 11 -10 5 0 7 5 4 10 -3 6 -8 10 -11 10 -2 0
-4 -4 -4 -10z"/>
<path d="M3256 2185 c-3 -8 -1 -15 4 -15 6 0 10 7 10 15 0 8 -2 15 -4 15 -2 0
-6 -7 -10 -15z"/>
<path d="M3280 2100 c0 -5 5 -10 10 -10 6 0 10 5 10 10 0 6 -4 10 -10 10 -5 0
-10 -4 -10 -10z"/>
<path d="M3320 2089 c0 -5 5 -7 10 -4 6 3 10 8 10 11 0 2 -4 4 -10 4 -5 0 -10
-5 -10 -11z"/>
<path d="M2672 2048 c5 -15 28 -23 28 -10 0 5 -7 13 -16 16 -10 4 -14 1 -12
-6z"/>
<path d="M2555 2010 c-3 -5 -1 -10 4 -10 6 0 11 5 11 10 0 6 -2 10 -4 10 -3 0
-8 -4 -11 -10z"/>
<path d="M2640 2010 c0 -5 7 -10 15 -10 8 0 15 5 15 10 0 6 -7 10 -15 10 -8 0
-15 -4 -15 -10z"/>
<path d="M2755 2010 c4 -6 11 -8 16 -5 14 9 11 15 -7 15 -8 0 -12 -5 -9 -10z"/>
<path d="M2615 1950 c-3 -5 -1 -10 4 -10 6 0 11 5 11 10 0 6 -2 10 -4 10 -3 0
-8 -4 -11 -10z"/>
<path d="M4790 2689 c0 -5 5 -7 10 -4 6 3 10 8 10 11 0 2 -4 4 -10 4 -5 0 -10
-5 -10 -11z"/>
<path d="M5485 2640 c-3 -5 -1 -10 4 -10 6 0 11 5 11 10 0 6 -2 10 -4 10 -3 0
-8 -4 -11 -10z"/>
<path d="M5069 2601 c-64 -13 -126 -57 -159 -114 -72 -126 -14 -273 129 -322
64 -22 108 -18 171 14 139 70 177 233 79 344 -55 63 -140 93 -220 78z"/>
<path d="M5500 2595 c0 -8 5 -15 10 -15 6 0 10 7 10 15 0 8 -4 15 -10 15 -5 0
-10 -7 -10 -15z"/>
<path d="M5485 2545 c-5 -11 -13 -23 -19 -27 -16 -11 6 -10 22 1 8 5 12 17 10
27 -5 18 -5 18 -13 -1z"/>
<path d="M5510 2480 c0 -5 -9 -19 -20 -30 -16 -16 -17 -20 -5 -20 8 0 15 -4
15 -10 0 -5 3 -10 8 -10 4 0 8 18 10 40 1 22 0 40 -3 40 -3 0 -5 -4 -5 -10z"/>
<path d="M4670 2390 c20 -13 33 -13 25 0 -3 6 -14 10 -23 10 -15 0 -15 -2 -2
-10z"/>
<path d="M5480 2385 c0 -8 5 -15 10 -15 6 0 10 7 10 15 0 8 -4 15 -10 15 -5 0
-10 -7 -10 -15z"/>
<path d="M5090 2100 c-20 -12 -10 -19 14 -10 11 3 15 9 10 13 -6 3 -16 2 -24
-3z"/>
<path d="M5175 2090 c-3 -5 -1 -10 4 -10 6 0 11 5 11 10 0 6 -2 10 -4 10 -3 0
-8 -4 -11 -10z"/>
<path d="M5260 2089 c0 -5 5 -7 10 -4 6 3 10 8 10 11 0 2 -4 4 -10 4 -5 0 -10
-5 -10 -11z"/>
<path d="M5326 2063 c-6 -14 -5 -15 5 -6 7 7 10 15 7 18 -3 3 -9 -2 -12 -12z"/>
<path d="M5144 2039 c-19 -21 -19 -21 9 -8 15 7 27 16 27 21 0 14 -16 9 -36
-13z"/>
<path d="M5275 2020 c3 -5 8 -10 11 -10 2 0 4 5 4 10 0 6 -5 10 -11 10 -5 0
-7 -4 -4 -10z"/>
<path d="M5230 1980 c0 -5 5 -10 10 -10 6 0 10 5 10 10 0 6 -4 10 -10 10 -5 0
-10 -4 -10 -10z"/>
<path d="M5255 1960 c-8 -13 25 -13 45 0 12 8 9 10 -12 10 -15 0 -30 -4 -33
-10z"/>
<path d="M5425 1959 c-11 -17 1 -21 15 -4 8 9 8 15 2 15 -6 0 -14 -5 -17 -11z"/>
<path d="M6560 2849 c0 -5 5 -7 10 -4 6 3 10 8 10 11 0 2 -4 4 -10 4 -5 0 -10
-5 -10 -11z"/>
<path d="M6500 2670 c0 -5 5 -10 10 -10 6 0 10 5 10 10 0 6 -4 10 -10 10 -5 0
-10 -4 -10 -10z"/>
<path d="M6346 2653 c-11 -11 -6 -23 9 -23 8 0 15 4 15 9 0 13 -16 22 -24 14z"/>
<path d="M6258 2613 c7 -3 16 -2 19 1 4 3 -2 6 -13 5 -11 0 -14 -3 -6 -6z"/>
<path d="M6210 2110 c0 -5 5 -10 11 -10 5 0 7 5 4 10 -3 6 -8 10 -11 10 -2 0
-4 -4 -4 -10z"/>
<path d="M6500 2086 c-6 -9 -10 -21 -8 -28 3 -8 9 -4 17 10 15 28 9 39 -9 18z"/>
<path d="M6306 2051 c-4 -5 -2 -12 3 -15 5 -4 12 -2 15 3 4 5 2 12 -3 15 -5 4
-12 2 -15 -3z"/>
<path d="M6362 2033 c2 -9 10 -18 18 -20 12 -4 13 -3 1 5 -7 5 -10 15 -7 21 4
6 2 11 -4 11 -6 0 -10 -8 -8 -17z"/>
<path d="M6235 2030 c-3 -5 -1 -10 4 -10 6 0 11 5 11 10 0 6 -2 10 -4 10 -3 0
-8 -4 -11 -10z"/>
<path d="M6430 2031 c0 -6 5 -13 10 -16 6 -3 10 1 10 9 0 9 -4 16 -10 16 -5 0
-10 -4 -10 -9z"/>
<path d="M6530 2000 c0 -5 7 -10 16 -10 8 0 12 5 9 10 -3 6 -10 10 -16 10 -5
0 -9 -4 -9 -10z"/>
<path d="M6453 1974 c0 -29 23 -32 30 -5 3 13 -1 21 -13 24 -13 3 -17 -2 -17
-19z"/>
<path d="M6570 1900 c0 -5 5 -10 10 -10 6 0 10 5 10 10 0 6 -4 10 -10 10 -5 0
-10 -4 -10 -10z"/>
</g>
</svg>
